<?xml version="1.0" encoding="UTF-8" standalone="no"?>
<!DOCTYPE svg PUBLIC "-//W3C//DTD SVG 1.1//EN" "http://www.w3.org/Graphics/SVG/1.1/DTD/svg11.dtd">
<svg width="100%" height="100%" viewBox="0 0 63 61" version="1.1" xmlns="http://www.w3.org/2000/svg" xmlns:xlink="http://www.w3.org/1999/xlink" xml:space="preserve" xmlns:serif="http://www.serif.com/" style="fill-rule:evenodd;clip-rule:evenodd;stroke-linejoin:round;stroke-miterlimit:2;">
    <g id="Group">
        <path id="Vector" d="M0.464,60.86C0.354,60.86 0.248,60.817 0.17,60.74C0.092,60.662 0.049,60.558 0.049,60.448L0.049,31.401C0.049,31.291 0.092,31.187 0.17,31.109C0.248,31.032 0.354,30.989 0.464,30.989L5.955,30.989C10.736,30.989 13.127,32.105 13.127,36.014L13.127,48.298C13.127,50.252 13.532,53.784 6.518,53.881C5.697,53.878 4.876,53.879 4.4,53.88C4.172,53.88 3.986,54.065 3.986,54.292L3.986,60.448C3.986,60.676 3.8,60.86 3.571,60.86L0.464,60.86Z"/>
        <path id="Vector_2" d="M15.498,30.989C15.388,30.989 15.282,31.032 15.204,31.109C15.126,31.187 15.083,31.292 15.083,31.401C15.085,34.27 15.096,51.273 15.096,55.975C15.096,58.348 15.377,61 22.267,61C29.722,61 28.879,56.381 28.951,55.838L28.951,31.462C28.951,31.235 28.765,31.05 28.536,31.05L25.794,31.05C25.565,31.05 25.38,31.234 25.379,31.461C25.375,33.083 25.361,39.043 25.361,41.039C25.361,43.412 24.799,44.668 22.127,44.668C19.455,44.668 18.819,43.541 18.819,41.164C18.819,39.114 18.758,33.031 18.741,31.397C18.738,31.171 18.553,30.989 18.326,30.989L15.498,30.989Z"/>
        <path id="Vector_3" d="M32.533,31.462C32.533,31.353 32.577,31.248 32.655,31.171C32.733,31.093 32.838,31.05 32.948,31.05L35.045,31.05C35.045,31.05 39.526,37.221 41.344,39.724C41.449,39.869 41.637,39.93 41.808,39.875C41.979,39.82 42.096,39.662 42.096,39.483L42.096,31.462C42.096,31.353 42.139,31.248 42.217,31.171C42.295,31.093 42.401,31.05 42.511,31.05L45.055,31.05C45.285,31.05 45.471,31.235 45.471,31.462L45.471,60.448C45.471,60.558 45.427,60.662 45.349,60.74C45.271,60.817 45.166,60.86 45.055,60.86L43.152,60.86C43.019,60.86 42.893,60.797 42.815,60.689C42.071,59.66 38.181,54.284 36.52,51.99C36.415,51.844 36.227,51.783 36.056,51.838C35.884,51.893 35.768,52.051 35.768,52.23L35.768,60.454C35.768,60.682 35.582,60.866 35.352,60.866L32.948,60.866C32.838,60.866 32.733,60.823 32.655,60.745C32.577,60.668 32.533,60.563 32.533,60.454L32.533,31.462Z"/>
        <path id="Vector_4" d="M49.127,31.401C49.127,31.291 49.171,31.187 49.248,31.109C49.326,31.032 49.432,30.989 49.542,30.989L52.649,30.989C52.878,30.989 53.064,31.173 53.064,31.401L53.064,36.663C53.064,36.836 53.173,36.99 53.336,37.05C53.5,37.109 53.683,37.062 53.796,36.93C55.348,35.117 58.83,31.05 58.83,31.05L61.649,31.05C61.878,31.05 62.064,31.235 62.064,31.462L62.064,44.918C62.064,45.026 62.107,45.13 62.184,45.207C62.364,45.388 62.701,45.727 62.88,45.907C62.957,45.985 63,46.089 63,46.197L63,60.448C63,60.676 62.814,60.86 62.585,60.86L59.611,60.86C59.477,60.86 59.351,60.796 59.273,60.688C58.632,59.798 55.689,55.712 54.756,54.416C54.685,54.318 54.574,54.255 54.452,54.245C54.33,54.235 54.21,54.279 54.124,54.365C53.819,54.667 53.393,55.091 53.186,55.296C53.108,55.373 53.064,55.478 53.064,55.587L53.064,60.454C53.064,60.563 53.021,60.668 52.943,60.745C52.865,60.822 52.759,60.866 52.649,60.866L49.542,60.866C49.432,60.866 49.326,60.822 49.248,60.745C49.171,60.668 49.127,60.563 49.127,60.454L49.127,31.401Z"/>
        <path id="Vector_5" d="M0.415,29.573C0.186,29.573 0,29.388 0,29.161L0,0.551C0,0.323 0.186,0.139 0.415,0.138C1.829,0.135 6.394,0.125 6.75,0.14C10.125,0.279 13.219,0.698 13.078,6.7C13.076,6.777 13.078,16.192 13.078,16.332C13.078,19.822 9.281,20.938 6.725,20.835C6.433,20.823 5.036,20.809 4.323,20.802C4.211,20.801 4.104,20.844 4.025,20.922C3.947,21 3.902,21.106 3.903,21.216C3.909,22.697 3.93,27.684 3.936,29.159C3.936,29.269 3.893,29.374 3.815,29.452C3.737,29.529 3.631,29.573 3.521,29.573L0.415,29.573Z"/>
        <path id="Vector_6" d="M15.469,0.412C15.469,0.303 15.512,0.198 15.59,0.121C15.668,0.043 15.774,0 15.884,0L18.85,0C18.961,0 19.066,0.043 19.144,0.121C19.222,0.198 19.266,0.303 19.266,0.412L19.266,29.18C19.266,29.29 19.222,29.395 19.144,29.472C19.066,29.549 18.961,29.593 18.85,29.593L15.884,29.593C15.774,29.593 15.668,29.549 15.59,29.472C15.512,29.395 15.469,29.29 15.469,29.18L15.469,0.412Z"/>
        <path id="Vector_7" d="M22.781,0.552C22.781,0.324 22.967,0.14 23.197,0.14L33.616,0.14C33.845,0.14 34.031,0.324 34.031,0.552L34.031,11.628C34.031,11.692 34.016,11.755 33.987,11.813C33.719,12.345 32.291,15.18 31.66,16.433C31.595,16.561 31.602,16.713 31.678,16.834C31.754,16.956 31.887,17.03 32.031,17.03L33.616,17.03C33.845,17.03 34.031,17.214 34.031,17.442L34.031,29.18C34.031,29.408 33.845,29.593 33.616,29.593L22.775,29.593C22.545,29.593 22.359,29.408 22.359,29.18L22.359,17.264C22.359,17.202 22.374,17.14 22.401,17.084C22.633,16.609 23.776,14.269 24.32,13.155C24.383,13.027 24.374,12.877 24.298,12.756C24.223,12.636 24.09,12.563 23.947,12.563L23.197,12.563C22.967,12.563 22.781,12.378 22.781,12.151L22.781,0.552Z"/>
        <path id="Vector_8" d="M36,0.552C36,0.324 36.186,0.14 36.415,0.14L46.835,0.14C47.064,0.14 47.25,0.324 47.25,0.552L47.25,11.628C47.25,11.692 47.235,11.755 47.206,11.813C46.86,12.5 44.578,17.03 44.578,17.03L46.835,17.03C47.064,17.03 47.25,17.214 47.25,17.442L47.25,29.18C47.25,29.408 47.064,29.593 46.835,29.593L35.993,29.593C35.764,29.593 35.578,29.408 35.578,29.18L35.578,17.169C35.578,17.169 36.932,14.399 37.539,13.155C37.601,13.027 37.593,12.877 37.517,12.756C37.441,12.636 37.308,12.563 37.165,12.563L36.415,12.563C36.186,12.563 36,12.378 36,12.151L36,0.552Z"/>
        <path id="Vector_9" d="M48.65,29.593C48.42,29.593 48.234,29.408 48.234,29.18L48.234,18.486C48.234,18.446 48.24,18.406 48.252,18.368C48.562,17.335 52.95,2.703 53.63,0.434C53.683,0.259 53.845,0.14 54.028,0.14L57.066,0.14C57.249,0.14 57.411,0.259 57.464,0.434C58.154,2.732 62.667,17.738 62.983,18.787C62.994,18.825 63,18.865 63,18.905L63,29.18C63,29.29 62.956,29.395 62.878,29.472C62.801,29.549 62.695,29.593 62.585,29.593L59.532,29.593C59.339,29.593 59.172,29.461 59.128,29.275C58.923,28.411 58.358,26.028 58.154,25.164C58.109,24.978 57.942,24.847 57.749,24.847L53.476,24.847C53.288,24.847 53.123,24.973 53.075,25.153C52.846,26.011 52.201,28.428 51.972,29.286C51.924,29.467 51.759,29.593 51.571,29.593L48.65,29.593Z"/>
    </g>
</svg>
