<?xml version="1.0" encoding="UTF-8" standalone="no"?>
<!DOCTYPE svg PUBLIC "-//W3C//DTD SVG 1.1//EN" "http://www.w3.org/Graphics/SVG/1.1/DTD/svg11.dtd">
<svg width="100%" height="100%" viewBox="0 0 128 128" version="1.1" xmlns="http://www.w3.org/2000/svg" xmlns:xlink="http://www.w3.org/1999/xlink" xml:space="preserve" xmlns:serif="http://www.serif.com/" style="fill-rule:evenodd;clip-rule:evenodd;stroke-linejoin:round;stroke-miterlimit:2;">
    <g transform="matrix(0.304783,0,0,0.304783,12.9408,17.5012)">
        <g transform="matrix(3.29915,0,0,3.31061,-42.9451,-56.9699)">
            <rect x="0.147" y="-0.136" width="127.297" height="126.856" style="fill:rgb(235,235,235);"/>
        </g>
        <g transform="matrix(1,0,0,1,-14.3313,0.216442)">
            <g transform="matrix(2.21011,0,0,2.18344,-383.906,-386.996)">
                <path d="M262.01,168.965C262.01,168.377 262.243,167.814 262.658,167.399C263.074,166.983 263.637,166.75 264.224,166.75L280.795,166.75C282.018,166.75 283.01,167.741 283.01,168.965L283.01,197.239C283.01,198.168 283.589,198.997 284.46,199.317C285.332,199.637 286.311,199.381 286.912,198.672C295.19,188.931 313.76,167.081 313.76,167.081L328.795,167.081C330.018,167.081 331.01,168.072 331.01,169.295L331.01,241.591C331.01,242.173 331.239,242.732 331.648,243.147C332.606,244.117 334.404,245.938 335.361,246.908C335.771,247.323 336,247.882 336,248.464L336,325.035C336,326.26 335.009,327.25 333.785,327.25L317.923,327.25C317.208,327.25 316.537,326.905 316.121,326.323C312.701,321.539 297.008,299.589 292.03,292.626C291.651,292.096 291.059,291.76 290.41,291.707C289.762,291.653 289.122,291.888 288.662,292.348C287.036,293.974 284.76,296.25 283.658,297.351C283.243,297.767 283.01,298.33 283.01,298.917L283.01,325.065C283.01,325.652 282.777,326.217 282.361,326.631C281.946,327.046 281.383,327.281 280.795,327.281L264.224,327.281C263.637,327.281 263.074,327.046 262.658,326.631C262.243,326.217 262.01,325.652 262.01,325.065L262.01,168.965Z"/>
            </g>
            <g transform="matrix(2.21011,0,0,2.18344,5.02491,-22.4396)">
                <path d="M2.215,159.144C0.991,159.144 0,158.152 0,156.929L0,3.209C0,1.987 0.99,0.996 2.212,0.994C9.754,0.975 34.102,0.921 36,1C54,1.75 70.5,4 69.75,36.25C69.74,36.665 69.75,87.25 69.75,88C69.75,106.75 49.5,112.75 35.864,112.195C34.307,112.131 26.86,112.056 23.054,112.02C22.461,112.013 21.89,112.245 21.469,112.663C21.048,113.081 20.812,113.65 20.814,114.244C20.847,122.198 20.958,148.997 20.991,156.92C20.993,157.509 20.761,158.075 20.345,158.492C19.93,158.909 19.365,159.144 18.776,159.144L2.215,159.144Z"/>
            </g>
        </g>
    </g>
</svg>
